<svg width="198" height="183" viewBox="0 0 198 183" fill="none" xmlns="http://www.w3.org/2000/svg">
<path fill-rule="evenodd" clip-rule="evenodd" d="M99.5913 5.06686C74.3035 -0.160486 48.5429 1.27587 29.6418 9.51665C20.1359 13.6612 13.0437 18.2584 8.42784 24.0376C3.83801 29.7842 1.63 36.784 2.05051 45.89C2.47265 55.0314 5.54483 66.282 11.5324 80.456C17.5162 94.621 26.3847 111.644 38.3447 132.317C50.25 152.895 63.1035 165.702 76.1363 172.801C89.1551 179.893 102.424 181.328 115.251 179.044C140.971 174.463 164.942 154.914 181.24 135.894C194.354 120.589 197.516 104.265 193.997 88.0175C190.466 71.7137 180.188 55.4208 166.288 40.3319C149.538 22.1494 124.872 10.2926 99.5913 5.06686ZM99.9962 3.10827C125.573 8.39534 150.656 20.4112 167.759 38.9769C181.783 54.1999 192.315 70.8046 195.952 87.5942C199.601 104.44 196.289 121.405 182.759 137.195C166.346 156.35 141.994 176.313 115.601 181.013C102.372 183.369 88.6355 181.887 75.1795 174.557C61.7375 167.235 48.646 154.116 36.6135 133.318C24.6357 112.615 15.7206 95.51 9.69002 81.2343C3.66326 66.9675 0.490547 55.4651 0.0526386 45.9823C-0.386901 36.4641 1.92989 28.9685 6.86512 22.7895C11.7743 16.6429 19.2075 11.8842 28.8425 7.68332C48.2235 -0.766691 74.4271 -2.17723 99.9962 3.10827ZM137 59.4981C137 59.4981 104 69.9998 116.068 56.3268C128.137 42.6538 134.434 38.6947 146.217 43.8475C158 49.0004 163.245 148.533 149.336 135.477C145.641 132.009 143 129.046 140.731 126.5C134.46 119.465 131.036 115.623 116.068 113.13C95.6856 109.736 72.1829 107.428 65.4256 135.477C58.6684 163.527 40.0388 40.933 69 60.4995C97.9611 80.0659 139 71.9981 141.5 66.4981C144 60.9981 137 59.4981 137 59.4981ZM55.6555 33.9828C51.0038 33.7804 25.6837 34.1422 26.6559 41.6954C27.6282 49.2486 30.883 59.1959 47.3131 57.2112C59.058 53.9698 70.4939 34.9753 55.6555 33.9828Z" fill="#080808"/>
</svg>
